<?xml version="1.0" encoding="UTF-8"?>
<svg xmlns="http://www.w3.org/2000/svg" xmlns:xlink="http://www.w3.org/1999/xlink" width="796.718262" height="153" viewBox="0 0 796.718262 153">
<defs>
<g>
<g id="glyph-0-0">
</g>
<g id="glyph-0-1">
</g>
<g id="glyph-0-2">
</g>
<g id="glyph-0-3">
</g>
<g id="glyph-0-4">
</g>
<g id="glyph-0-5">
</g>
<g id="glyph-0-6">
</g>
<g id="glyph-0-7">
</g>
<g id="glyph-0-8">
</g>
<g id="glyph-0-9">
</g>
</g>
</defs>
<path fill-rule="nonzero" fill="rgb(91.764832%, 91.764832%, 91.764832%)" fill-opacity="1" d="M 147.691406 142.71875 C 144.910156 142.960938 141.972656 143.59375 139.347656 142.636719 C 137.351562 141.910156 135.839844 140.105469 134.703125 137.417969 C 133.429688 134.332031 131.675781 131.46875 129.5 128.933594 C 125.136719 123.910156 119.921875 121.253906 113.078125 122.992188 C 107.757812 124.351562 102.132812 123.78125 97.199219 121.378906 C 95.023438 120.363281 94.363281 119.324219 95.964844 117.121094 C 99.046875 112.90625 98.9375 112.917969 104.179688 114.300781 C 106.375 114.964844 108.714844 115.003906 110.933594 114.414062 C 113.152344 113.820312 115.160156 112.621094 116.730469 110.945312 C 119.222656 108.386719 121.277344 107.828125 123.957031 110.46875 C 124.753906 111.164062 125.679688 111.6875 126.6875 112.015625 C 127.691406 112.339844 128.75 112.457031 129.804688 112.355469 C 135.277344 112.289062 140.890625 112.355469 146.421875 112.261719 C 158.191406 112.042969 165.171875 103.160156 162.53125 91.648438 C 162.222656 90.671875 162.1875 89.628906 162.425781 88.636719 C 162.667969 87.640625 163.179688 86.734375 163.898438 86.007812 C 172.113281 76.660156 169.675781 64.394531 158.492188 58.890625 C 156.070312 57.699219 155.125 56.539062 155.441406 53.621094 C 156.917969 40.140625 148.324219 32.253906 135.003906 34.734375 C 132.664062 35.171875 131.171875 34.9375 130.445312 32.417969 C 126.75 19.457031 110.339844 13.980469 98.964844 25.234375 C 96.828125 27.355469 95.40625 27.546875 92.859375 25.78125 C 82.375 18.511719 71.765625 21.769531 66.851562 33.625 C 66.113281 35.402344 65.113281 36.074219 63.292969 35.621094 C 62.648438 35.46875 61.996094 35.351562 61.335938 35.265625 C 49.015625 33.679688 41.0625 41.441406 42.84375 53.757812 C 43.28125 56.8125 42.609375 58.234375 39.832031 59.660156 C 36.292969 61.351562 33.460938 64.242188 31.839844 67.816406 C 30.222656 71.394531 29.914062 75.425781 30.976562 79.203125 C 31.859375 82.960938 33.996094 86.300781 37.035156 88.675781 C 40.074219 91.054688 43.832031 92.324219 47.6875 92.277344 C 48.6875 92.277344 49.6875 92.277344 50.6875 92.277344 C 53.109375 92.425781 54.367188 91.457031 54.546875 88.894531 C 54.8125 85.664062 56.058594 82.585938 58.121094 80.082031 C 60.132812 77.546875 63.101562 76.824219 65.113281 78.289062 C 67.125 79.753906 67.140625 82.257812 64.921875 85.242188 C 60.816406 90.8125 62.992188 99.613281 69.601562 103.664062 C 71.25 104.574219 72.960938 105.359375 74.722656 106.019531 C 76.089844 106.609375 76.253906 107.386719 75.394531 108.566406 C 71.546875 114.039062 67.878906 114.589844 62.828125 110.167969 C 61.164062 108.871094 59.769531 107.261719 58.722656 105.429688 C 57.160156 102.269531 54.710938 101.324219 51.386719 101.640625 C 44.914062 102.199219 38.445312 100.527344 33.054688 96.902344 C 29.734375 94.710938 26.957031 91.792969 24.933594 88.367188 C 22.910156 84.941406 21.691406 81.097656 21.375 77.132812 C 21.058594 73.164062 21.652344 69.179688 23.105469 65.476562 C 24.5625 61.769531 26.839844 58.449219 29.773438 55.757812 C 30.886719 54.808594 31.785156 53.640625 32.417969 52.320312 C 33.050781 51.003906 33.398438 49.566406 33.441406 48.105469 C 33.933594 42.308594 36.488281 36.878906 40.644531 32.804688 C 44.796875 28.726562 50.273438 26.273438 56.078125 25.890625 C 57.222656 25.859375 58.347656 25.574219 59.363281 25.054688 C 60.382812 24.53125 61.273438 23.789062 61.964844 22.878906 C 69.671875 13.476562 80.554688 10.558594 92.078125 14.859375 C 92.988281 15.238281 93.972656 15.394531 94.957031 15.3125 C 95.9375 15.230469 96.882812 14.914062 97.71875 14.390625 C 112.007812 6.359375 126.285156 9.464844 136.042969 22.742188 C 136.542969 23.460938 137.207031 24.050781 137.988281 24.449219 C 138.765625 24.847656 139.632812 25.046875 140.507812 25.027344 C 146.773438 25.253906 152.734375 27.78125 157.253906 32.125 C 161.769531 36.472656 164.527344 42.332031 164.996094 48.585938 C 165.070312 49.675781 165.371094 50.742188 165.875 51.714844 C 166.378906 52.6875 167.078125 53.542969 167.925781 54.238281 C 178.9375 64.46875 180.664062 76.128906 173.097656 89.222656 C 172.328125 90.5625 172.007812 92.113281 172.179688 93.644531 C 173.152344 108.074219 163.96875 119.199219 149.636719 121.1875 C 144.996094 121.828125 144.847656 122.007812 146.351562 126.359375 C 147.71875 130.34375 149.226562 134.269531 150.675781 138.226562 C 151.976562 141.773438 151.554688 142.441406 147.691406 142.71875 Z M 147.691406 142.71875 "/>
<path fill-rule="nonzero" fill="rgb(91.764832%, 91.764832%, 91.764832%)" fill-opacity="1" d="M 123.300781 53.800781 L 127.105469 54.128906 C 127.542969 54.226562 127.992188 54.234375 128.429688 54.15625 C 128.867188 54.078125 129.285156 53.910156 129.660156 53.667969 C 130.03125 53.421875 130.351562 53.105469 130.597656 52.738281 C 130.847656 52.367188 131.019531 51.953125 131.101562 51.515625 C 131.882812 48.777344 133.648438 47.1875 136.578125 48.105469 C 139.507812 49.023438 139.90625 51.378906 139.410156 54.046875 C 138.304688 60.125 133.375 63.628906 126.695312 62.929688 C 117.746094 61.921875 108.691406 63.277344 100.429688 66.859375 C 95.484375 68.839844 90.960938 71.746094 87.109375 75.425781 C 86.640625 75.910156 86.148438 76.367188 85.632812 76.796875 C 83.523438 78.507812 81.277344 79.121094 79.0625 77.109375 C 77.1875 75.425781 77.363281 72.550781 79.664062 70.363281 C 86.878906 63.285156 95.851562 58.257812 105.65625 55.796875 C 111.445312 54.484375 117.363281 53.8125 123.300781 53.800781 Z M 123.300781 53.800781 "/>
<path fill-rule="nonzero" fill="rgb(91.764832%, 91.764832%, 91.764832%)" fill-opacity="1" d="M 109.394531 30.871094 C 111.144531 31.0625 112.925781 31.144531 114.648438 31.476562 C 117.386719 31.980469 118.839844 33.664062 118.359375 36.429688 C 117.878906 39.195312 115.746094 40.097656 113.117188 39.605469 C 110.785156 39.085938 108.367188 39.039062 106.015625 39.472656 C 103.664062 39.902344 101.425781 40.804688 99.429688 42.125 C 97.632812 43.421875 96.082031 45.023438 94.84375 46.859375 C 92.640625 49.789062 90.246094 50.554688 88.125 49.117188 C 86 47.679688 85.890625 44.902344 88.039062 41.769531 C 90.472656 38.378906 93.675781 35.621094 97.394531 33.722656 C 101.109375 31.828125 105.222656 30.851562 109.394531 30.871094 Z M 109.394531 30.871094 "/>
<path fill-rule="nonzero" fill="rgb(91.764832%, 91.764832%, 91.764832%)" fill-opacity="1" d="M 139.34375 81.929688 C 142.765625 82.175781 145.339844 81.023438 146.75 77.65625 C 147.816406 75.113281 149.636719 73.550781 152.484375 74.921875 C 155.332031 76.289062 155.097656 78.726562 154.070312 81.1875 C 152.777344 84.089844 150.617188 86.519531 147.894531 88.152344 C 145.167969 89.78125 142.003906 90.535156 138.835938 90.304688 C 135.359375 90.019531 133.445312 88.210938 133.691406 85.5 C 133.9375 82.789062 135.769531 81.695312 139.34375 81.929688 Z M 139.34375 81.929688 "/>
<path fill-rule="nonzero" fill="rgb(91.764832%, 91.764832%, 91.764832%)" fill-opacity="1" d="M 67.824219 67.253906 C 63.0625 67.1875 57.175781 61.203125 57.214844 56.730469 C 57.125 55.832031 57.351562 54.933594 57.847656 54.1875 C 58.347656 53.4375 59.09375 52.882812 59.953125 52.621094 C 60.394531 52.445312 60.863281 52.355469 61.339844 52.363281 C 61.8125 52.367188 62.28125 52.46875 62.71875 52.660156 C 63.152344 52.847656 63.542969 53.125 63.871094 53.46875 C 64.199219 53.8125 64.453125 54.21875 64.621094 54.664062 C 65.554688 56.90625 67.304688 58.710938 69.519531 59.714844 C 70.402344 60.085938 71.109375 60.777344 71.492188 61.65625 C 71.878906 62.53125 71.910156 63.519531 71.589844 64.421875 C 71.363281 65.246094 70.871094 65.96875 70.191406 66.480469 C 69.507812 66.996094 68.675781 67.265625 67.824219 67.253906 Z M 67.824219 67.253906 "/>
<path fill-rule="nonzero" fill="rgb(40.783691%, 25.489807%, 100%)" fill-opacity="1" d="M 10.121094 98.855469 C 10.300781 98.089844 11.230469 98.242188 11.429688 99.003906 C 12.527344 103.238281 14.074219 107.347656 16.042969 111.261719 C 24.023438 125.730469 39.078125 131.792969 54.832031 126.714844 C 68.523438 122.292969 78.597656 113.355469 86.523438 101.640625 C 87.808594 99.738281 87.546875 98.421875 85.617188 97.273438 C 84.265625 96.515625 82.964844 95.675781 81.71875 94.753906 C 79.527344 93.058594 79.457031 90.796875 81.867188 89.730469 C 89.160156 86.476562 96.648438 83.683594 104.289062 81.367188 C 106.589844 80.667969 108.203125 81.984375 108.394531 84.445312 C 109.011719 92.277344 109.613281 100.121094 110.078125 107.964844 C 110.242188 110.699219 108.164062 111.90625 105.617188 110.699219 L 105.328125 110.535156 C 103.082031 109.425781 101.222656 106.59375 98.746094 107.265625 C 96.265625 107.9375 95.570312 111.054688 93.914062 112.972656 C 82.632812 126.097656 69.082031 135.40625 51.480469 137.214844 C 31.285156 139.265625 11.507812 126.449219 10.15625 102.796875 C 10.082031 101.484375 9.824219 100.136719 10.121094 98.855469 Z M 10.121094 98.855469 "/>
<path fill-rule="nonzero" fill="rgb(61.569214%, 85.098267%, 87.843323%)" fill-opacity="1" d="M 207.953125 111.5 Z M 238.5 111.5 L 214.839844 111.5 L 214.839844 41.683594 L 238.976562 41.683594 C 245.90625 41.683594 251.863281 43.078125 256.839844 45.875 C 261.839844 48.648438 265.679688 52.636719 268.363281 57.839844 C 271.042969 63.046875 272.382812 69.273438 272.382812 76.523438 C 272.382812 83.796875 271.03125 90.046875 268.328125 95.273438 C 265.644531 100.5 261.769531 104.511719 256.703125 107.308594 C 251.65625 110.101562 245.589844 111.5 238.5 111.5 Z M 227.488281 100.558594 L 237.882812 100.558594 C 242.75 100.558594 246.804688 99.671875 250.054688 97.898438 C 253.304688 96.101562 255.75 93.433594 257.382812 89.886719 C 259.019531 86.316406 259.839844 81.863281 259.839844 76.523438 C 259.839844 71.183594 259.019531 66.75 257.382812 63.226562 C 255.75 59.683594 253.328125 57.035156 250.125 55.285156 C 246.941406 53.511719 242.988281 52.625 238.257812 52.625 L 227.488281 52.625 Z M 277.515625 111.5 Z M 317.230469 89.476562 L 317.230469 59.136719 L 329.570312 59.136719 L 329.570312 111.5 L 317.605469 111.5 L 317.605469 102.191406 L 317.0625 102.191406 C 315.878906 105.125 313.9375 107.523438 311.230469 109.386719 C 308.550781 111.25 305.242188 112.183594 301.3125 112.183594 C 297.878906 112.183594 294.84375 111.421875 292.207031 109.898438 C 289.59375 108.351562 287.550781 106.113281 286.070312 103.183594 C 284.59375 100.226562 283.855469 96.660156 283.855469 92.476562 L 283.855469 59.136719 L 296.195312 59.136719 L 296.195312 90.566406 C 296.195312 93.886719 297.105469 96.523438 298.925781 98.476562 C 300.742188 100.433594 303.128906 101.410156 306.082031 101.410156 C 307.902344 101.410156 309.664062 100.964844 311.367188 100.078125 C 313.070312 99.191406 314.46875 97.875 315.5625 96.125 C 316.675781 94.351562 317.230469 92.136719 317.230469 89.476562 Z M 335.921875 111.5 Z M 365.101562 112.523438 C 359.988281 112.523438 355.558594 111.398438 351.808594 109.148438 C 348.058594 106.898438 345.148438 103.75 343.082031 99.703125 C 341.035156 95.660156 340.011719 90.933594 340.011719 85.523438 C 340.011719 80.113281 341.035156 75.375 343.082031 71.308594 C 345.148438 67.238281 348.058594 64.078125 351.808594 61.828125 C 355.558594 59.578125 359.988281 58.453125 365.101562 58.453125 C 370.21875 58.453125 374.648438 59.578125 378.398438 61.828125 C 382.148438 64.078125 385.046875 67.238281 387.09375 71.308594 C 389.160156 75.375 390.195312 80.113281 390.195312 85.523438 C 390.195312 90.933594 389.160156 95.660156 387.09375 99.703125 C 385.046875 103.75 382.148438 106.898438 378.398438 109.148438 C 374.648438 111.398438 370.21875 112.523438 365.101562 112.523438 Z M 365.171875 102.636719 C 367.945312 102.636719 370.261719 101.875 372.125 100.351562 C 373.988281 98.808594 375.375 96.738281 376.285156 94.148438 C 377.21875 91.558594 377.683594 88.671875 377.683594 85.488281 C 377.683594 82.285156 377.21875 79.386719 376.285156 76.796875 C 375.375 74.183594 373.988281 72.101562 372.125 70.558594 C 370.261719 69.011719 367.945312 68.238281 365.171875 68.238281 C 362.332031 68.238281 359.96875 69.011719 358.082031 70.558594 C 356.21875 72.101562 354.820312 74.183594 353.886719 76.796875 C 352.976562 79.386719 352.523438 82.285156 352.523438 85.488281 C 352.523438 88.671875 352.976562 91.558594 353.886719 94.148438 C 354.820312 96.738281 356.21875 98.808594 358.082031 100.351562 C 359.96875 101.875 362.332031 102.636719 365.171875 102.636719 Z M 365.171875 102.636719 "/>
<g fill="rgb(0%, 0%, 0%)" fill-opacity="1">
<use xlink:href="#glyph-0-0" x="207.952637" y="111.5"/>
</g>
<g fill="rgb(0%, 0%, 0%)" fill-opacity="1">
<use xlink:href="#glyph-0-1" x="277.498109" y="111.5"/>
</g>
<g fill="rgb(0%, 0%, 0%)" fill-opacity="1">
<use xlink:href="#glyph-0-2" x="335.895869" y="111.5"/>
</g>
<path fill-rule="nonzero" fill="rgb(91.764832%, 91.764832%, 91.764832%)" fill-opacity="1" d="M 394.328125 111.5 Z M 460.976562 65.238281 L 448.226562 65.238281 C 447.863281 63.148438 447.191406 61.296875 446.214844 59.683594 C 445.238281 58.046875 444.019531 56.660156 442.566406 55.523438 C 441.113281 54.386719 439.453125 53.535156 437.589844 52.964844 C 435.75 52.375 433.757812 52.078125 431.625 52.078125 C 427.828125 52.078125 424.464844 53.035156 421.53125 54.941406 C 418.601562 56.828125 416.304688 59.601562 414.644531 63.261719 C 412.988281 66.898438 412.15625 71.339844 412.15625 76.589844 C 412.15625 81.933594 412.988281 86.433594 414.644531 90.089844 C 416.328125 93.726562 418.625 96.476562 421.53125 98.339844 C 424.464844 100.183594 427.816406 101.101562 431.589844 101.101562 C 433.679688 101.101562 435.632812 100.828125 437.453125 100.285156 C 439.292969 99.714844 440.941406 98.886719 442.394531 97.796875 C 443.875 96.703125 445.113281 95.363281 446.113281 93.773438 C 447.132812 92.183594 447.839844 90.363281 448.226562 88.316406 L 460.976562 88.386719 C 460.5 91.703125 459.464844 94.816406 457.875 97.726562 C 456.304688 100.636719 454.25 103.203125 451.703125 105.433594 C 449.15625 107.636719 446.179688 109.363281 442.769531 110.613281 C 439.363281 111.839844 435.578125 112.453125 431.417969 112.453125 C 425.28125 112.453125 419.804688 111.035156 414.988281 108.191406 C 410.167969 105.351562 406.375 101.25 403.601562 95.886719 C 400.828125 90.523438 399.441406 84.089844 399.441406 76.589844 C 399.441406 69.066406 400.839844 62.636719 403.632812 57.296875 C 406.429688 51.933594 410.238281 47.828125 415.054688 44.988281 C 419.875 42.148438 425.328125 40.726562 431.417969 40.726562 C 435.304688 40.726562 438.917969 41.273438 442.257812 42.363281 C 445.601562 43.453125 448.578125 45.058594 451.191406 47.171875 C 453.804688 49.261719 455.953125 51.828125 457.632812 54.875 C 459.339844 57.898438 460.453125 61.351562 460.976562 65.238281 Z M 465.671875 111.5 Z M 494.851562 112.523438 C 489.738281 112.523438 485.308594 111.398438 481.558594 109.148438 C 477.808594 106.898438 474.898438 103.75 472.832031 99.703125 C 470.785156 95.660156 469.761719 90.933594 469.761719 85.523438 C 469.761719 80.113281 470.785156 75.375 472.832031 71.308594 C 474.898438 67.238281 477.808594 64.078125 481.558594 61.828125 C 485.308594 59.578125 489.738281 58.453125 494.851562 58.453125 C 499.96875 58.453125 504.398438 59.578125 508.148438 61.828125 C 511.898438 64.078125 514.796875 67.238281 516.84375 71.308594 C 518.910156 75.375 519.945312 80.113281 519.945312 85.523438 C 519.945312 90.933594 518.910156 95.660156 516.84375 99.703125 C 514.796875 103.75 511.898438 106.898438 508.148438 109.148438 C 504.398438 111.398438 499.96875 112.523438 494.851562 112.523438 Z M 494.921875 102.636719 C 497.695312 102.636719 500.011719 101.875 501.875 100.351562 C 503.738281 98.808594 505.125 96.738281 506.035156 94.148438 C 506.96875 91.558594 507.433594 88.671875 507.433594 85.488281 C 507.433594 82.285156 506.96875 79.386719 506.035156 76.796875 C 505.125 74.183594 503.738281 72.101562 501.875 70.558594 C 500.011719 69.011719 497.695312 68.238281 494.921875 68.238281 C 492.082031 68.238281 489.71875 69.011719 487.832031 70.558594 C 485.96875 72.101562 484.570312 74.183594 483.636719 76.796875 C 482.726562 79.386719 482.273438 82.285156 482.273438 85.488281 C 482.273438 88.671875 482.726562 91.558594 483.636719 94.148438 C 484.570312 96.738281 485.96875 98.808594 487.832031 100.351562 C 489.71875 101.875 492.082031 102.636719 494.921875 102.636719 Z M 524.078125 111.5 Z M 542.757812 80.816406 L 542.757812 111.5 L 530.417969 111.5 L 530.417969 59.136719 L 542.214844 59.136719 L 542.214844 68.035156 L 542.828125 68.035156 C 544.03125 65.101562 545.953125 62.773438 548.589844 61.046875 C 551.25 59.316406 554.53125 58.453125 558.441406 58.453125 C 562.054688 58.453125 565.203125 59.226562 567.882812 60.773438 C 570.589844 62.316406 572.679688 64.558594 574.15625 67.488281 C 575.65625 70.421875 576.394531 73.976562 576.375 78.160156 L 576.375 111.5 L 564.03125 111.5 L 564.03125 80.066406 C 564.03125 76.566406 563.125 73.828125 561.304688 71.851562 C 559.507812 69.875 557.019531 68.886719 553.839844 68.886719 C 551.679688 68.886719 549.757812 69.363281 548.078125 70.316406 C 546.417969 71.25 545.113281 72.601562 544.15625 74.375 C 543.226562 76.148438 542.757812 78.296875 542.757812 80.816406 Z M 582.578125 111.5 Z M 612.101562 112.523438 C 606.851562 112.523438 602.316406 111.433594 598.5 109.25 C 594.703125 107.046875 591.78125 103.933594 589.738281 99.910156 C 587.691406 95.863281 586.667969 91.101562 586.667969 85.625 C 586.667969 80.238281 587.691406 75.511719 589.738281 71.441406 C 591.804688 67.351562 594.691406 64.171875 598.394531 61.898438 C 602.101562 59.601562 606.453125 58.453125 611.453125 58.453125 C 614.679688 58.453125 617.726562 58.976562 620.589844 60.023438 C 623.476562 61.046875 626.019531 62.636719 628.226562 64.796875 C 630.453125 66.953125 632.203125 69.703125 633.476562 73.046875 C 634.75 76.363281 635.382812 80.316406 635.382812 84.910156 L 635.382812 88.691406 L 592.464844 88.691406 L 592.464844 80.375 L 623.554688 80.375 C 623.53125 78.011719 623.019531 75.910156 622.019531 74.066406 C 621.019531 72.203125 619.625 70.738281 617.828125 69.671875 C 616.054688 68.601562 613.988281 68.066406 611.625 68.066406 C 609.101562 68.066406 606.882812 68.683594 604.976562 69.910156 C 603.066406 71.113281 601.578125 72.703125 600.507812 74.683594 C 599.464844 76.636719 598.929688 78.785156 598.90625 81.125 L 598.90625 88.386719 C 598.90625 91.433594 599.464844 94.046875 600.578125 96.226562 C 601.691406 98.386719 603.25 100.046875 605.25 101.203125 C 607.25 102.339844 609.589844 102.910156 612.269531 102.910156 C 614.066406 102.910156 615.691406 102.660156 617.144531 102.160156 C 618.601562 101.636719 619.863281 100.875 620.929688 99.875 C 622 98.875 622.804688 97.636719 623.351562 96.160156 L 634.875 97.453125 C 634.144531 100.5 632.757812 103.160156 630.714844 105.433594 C 628.691406 107.683594 626.101562 109.433594 622.941406 110.683594 C 619.78125 111.910156 616.167969 112.523438 612.101562 112.523438 Z M 639.484375 111.5 Z M 668.664062 112.523438 C 663.4375 112.523438 658.949219 111.375 655.199219 109.078125 C 651.472656 106.785156 648.597656 103.613281 646.574219 99.566406 C 644.574219 95.5 643.574219 90.816406 643.574219 85.523438 C 643.574219 80.203125 644.597656 75.511719 646.644531 71.441406 C 648.6875 67.351562 651.574219 64.171875 655.300781 61.898438 C 659.050781 59.601562 663.484375 58.453125 668.597656 58.453125 C 672.847656 58.453125 676.609375 59.238281 679.882812 60.808594 C 683.175781 62.351562 685.800781 64.546875 687.757812 67.386719 C 689.710938 70.203125 690.824219 73.5 691.097656 77.273438 L 679.300781 77.273438 C 678.824219 74.75 677.6875 72.648438 675.894531 70.964844 C 674.121094 69.261719 671.746094 68.410156 668.769531 68.410156 C 666.246094 68.410156 664.03125 69.089844 662.121094 70.453125 C 660.210938 71.796875 658.722656 73.726562 657.65625 76.25 C 656.609375 78.773438 656.085938 81.796875 656.085938 85.316406 C 656.085938 88.886719 656.609375 91.953125 657.65625 94.523438 C 658.699219 97.066406 660.164062 99.035156 662.050781 100.421875 C 663.960938 101.785156 666.199219 102.464844 668.769531 102.464844 C 670.585938 102.464844 672.210938 102.125 673.644531 101.441406 C 675.097656 100.738281 676.3125 99.726562 677.289062 98.410156 C 678.269531 97.089844 678.9375 95.488281 679.300781 93.601562 L 691.097656 93.601562 C 690.800781 97.308594 689.710938 100.589844 687.824219 103.453125 C 685.9375 106.296875 683.371094 108.523438 680.121094 110.136719 C 676.871094 111.726562 673.050781 112.523438 668.664062 112.523438 Z M 694.890625 111.5 Z M 727.378906 59.136719 L 727.378906 68.683594 L 697.277344 68.683594 L 697.277344 59.136719 Z M 704.707031 46.589844 L 717.050781 46.589844 L 717.050781 95.75 C 717.050781 97.410156 717.300781 98.683594 717.800781 99.566406 C 718.320312 100.433594 719.003906 101.023438 719.84375 101.339844 C 720.6875 101.660156 721.617188 101.816406 722.640625 101.816406 C 723.414062 101.816406 724.117188 101.761719 724.753906 101.648438 C 725.414062 101.535156 725.914062 101.433594 726.253906 101.339844 L 728.332031 110.988281 C 727.675781 111.214844 726.730469 111.464844 725.503906 111.738281 C 724.300781 112.011719 722.820312 112.171875 721.070312 112.214844 C 717.980469 112.308594 715.195312 111.839844 712.71875 110.816406 C 710.242188 109.773438 708.277344 108.160156 706.820312 105.976562 C 705.390625 103.796875 704.6875 101.066406 704.707031 97.796875 Z M 731.359375 111.5 Z M 752.769531 112.558594 C 749.449219 112.558594 746.460938 111.964844 743.800781 110.785156 C 741.164062 109.578125 739.074219 107.808594 737.53125 105.464844 C 736.007812 103.125 735.246094 100.238281 735.246094 96.808594 C 735.246094 93.851562 735.789062 91.410156 736.882812 89.476562 C 737.972656 87.546875 739.460938 86 741.347656 84.839844 C 743.234375 83.683594 745.359375 82.808594 747.722656 82.214844 C 750.109375 81.601562 752.574219 81.160156 755.121094 80.886719 C 758.1875 80.566406 760.675781 80.285156 762.585938 80.035156 C 764.496094 79.761719 765.882812 79.351562 766.746094 78.808594 C 767.632812 78.238281 768.074219 77.363281 768.074219 76.183594 L 768.074219 75.976562 C 768.074219 73.410156 767.3125 71.421875 765.789062 70.011719 C 764.269531 68.601562 762.074219 67.898438 759.210938 67.898438 C 756.1875 67.898438 753.789062 68.558594 752.019531 69.875 C 750.269531 71.191406 749.085938 72.75 748.472656 74.546875 L 736.949219 72.910156 C 737.859375 69.726562 739.359375 67.066406 741.449219 64.933594 C 743.539062 62.773438 746.097656 61.160156 749.121094 60.089844 C 752.144531 59 755.484375 58.453125 759.144531 58.453125 C 761.664062 58.453125 764.175781 58.75 766.675781 59.339844 C 769.175781 59.933594 771.460938 60.910156 773.53125 62.273438 C 775.597656 63.613281 777.257812 65.441406 778.507812 67.761719 C 779.78125 70.078125 780.414062 72.976562 780.414062 76.453125 L 780.414062 111.5 L 768.550781 111.5 L 768.550781 104.308594 L 768.144531 104.308594 C 767.394531 105.761719 766.335938 107.125 764.972656 108.398438 C 763.632812 109.648438 761.9375 110.660156 759.894531 111.433594 C 757.871094 112.183594 755.496094 112.558594 752.769531 112.558594 Z M 755.972656 103.488281 C 758.449219 103.488281 760.597656 103 762.414062 102.023438 C 764.234375 101.023438 765.632812 99.703125 766.609375 98.066406 C 767.609375 96.433594 768.109375 94.648438 768.109375 92.714844 L 768.109375 86.546875 C 767.722656 86.863281 767.0625 87.160156 766.132812 87.433594 C 765.222656 87.703125 764.199219 87.941406 763.0625 88.148438 C 761.925781 88.351562 760.800781 88.535156 759.6875 88.691406 C 758.574219 88.851562 757.609375 88.988281 756.789062 89.101562 C 754.949219 89.351562 753.300781 89.761719 751.847656 90.328125 C 750.394531 90.898438 749.246094 91.691406 748.40625 92.714844 C 747.5625 93.714844 747.144531 95.011719 747.144531 96.601562 C 747.144531 98.875 747.972656 100.589844 749.632812 101.75 C 751.289062 102.910156 753.40625 103.488281 755.972656 103.488281 Z M 755.972656 103.488281 "/>
<g fill="rgb(0%, 0%, 0%)" fill-opacity="1">
<use xlink:href="#glyph-0-3" x="394.327637" y="111.5"/>
</g>
<g fill="rgb(0%, 0%, 0%)" fill-opacity="1">
<use xlink:href="#glyph-0-4" x="465.714005" y="111.5"/>
</g>
<g fill="rgb(0%, 0%, 0%)" fill-opacity="1">
<use xlink:href="#glyph-0-5" x="524.077685" y="111.5"/>
</g>
<g fill="rgb(0%, 0%, 0%)" fill-opacity="1">
<use xlink:href="#glyph-0-6" x="582.611765" y="111.5"/>
</g>
<g fill="rgb(0%, 0%, 0%)" fill-opacity="1">
<use xlink:href="#glyph-0-7" x="639.509525" y="111.5"/>
</g>
<g fill="rgb(0%, 0%, 0%)" fill-opacity="1">
<use xlink:href="#glyph-0-8" x="694.941365" y="111.5"/>
</g>
<g fill="rgb(0%, 0%, 0%)" fill-opacity="1">
<use xlink:href="#glyph-0-9" x="731.418677" y="111.5"/>
</g>
</svg>
